<?xml version="1.0" standalone="no"?>
<!DOCTYPE svg PUBLIC "-//W3C//DTD SVG 20010904//EN"
 "http://www.w3.org/TR/2001/REC-SVG-20010904/DTD/svg10.dtd">
<svg version="1.0" xmlns="http://www.w3.org/2000/svg"
 width="216.000000pt" height="216.000000pt" viewBox="0 0 216.000000 216.000000"
 preserveAspectRatio="xMidYMid meet">
<metadata>
Created by potrace 1.16, written by Peter Selinger 2001-2019
</metadata>
<g transform="translate(0.000000,216.000000) scale(0.100000,-0.100000)"
fill="#000000" stroke="none">
<path d="M0 2099 c0 -47 4 -65 18 -75 16 -13 16 -13 0 -14 -17 0 -18 -16 -18
-188 0 -185 0 -187 23 -197 14 -7 22 -19 22 -35 0 -14 7 -30 15 -37 13 -11 12
-12 -6 -13 -27 0 -41 17 -47 55 -2 17 -5 2 -6 -33 l-1 -62 26 6 c20 5 25 3 22
-7 -3 -8 -14 -15 -26 -17 -21 -3 -22 -7 -22 -143 0 -76 4 -139 9 -139 9 0 29
21 29 30 1 3 5 17 11 33 10 27 34 36 46 17 3 -5 1 -10 -6 -10 -7 0 -4 -6 6
-14 20 -15 24 -13 147 43 26 11 49 21 52 21 3 0 29 11 58 25 72 33 204 75 238
75 48 0 90 12 90 25 0 17 32 77 45 87 6 5 4 8 -4 8 -9 0 -3 10 15 28 38 35 63
81 66 121 1 18 8 31 16 31 7 0 10 4 7 10 -3 5 6 12 20 16 14 3 25 10 25 14 0
4 10 11 23 15 27 9 25 8 62 26 17 7 36 20 44 27 18 17 35 10 39 -16 3 -20 -10
-28 -40 -23 -5 0 -8 -6 -8 -14 0 -8 -7 -15 -16 -15 -8 0 -12 -4 -9 -10 3 -5 1
-10 -4 -10 -6 0 -11 6 -11 13 0 6 -10 -3 -21 -20 -12 -18 -28 -33 -36 -33 -9
0 -13 -6 -9 -15 3 -9 0 -15 -9 -15 -12 0 -45 -52 -45 -72 0 -5 -9 -19 -20 -30
-11 -12 -19 -27 -16 -33 2 -5 -4 -19 -13 -29 -12 -14 -13 -20 -3 -23 16 -6 15
-18 -1 -35 -11 -11 -31 -53 -55 -118 -4 -10 2 -9 17 5 13 11 25 19 28 17 3 -2
8 0 11 4 4 4 1 4 -7 -1 -11 -6 -12 -2 -7 21 4 16 14 36 22 44 13 13 14 9 9
-30 -4 -33 -14 -52 -35 -72 -22 -20 -30 -36 -30 -62 0 -43 -10 -72 -20 -56 -4
6 -6 -32 -6 -84 1 -52 4 -98 8 -101 7 -7 -2 -45 -11 -45 -3 0 -7 -15 -7 -32
-3 -64 -13 -130 -23 -141 -5 -7 -11 -21 -13 -32 -1 -11 -9 -25 -17 -31 -7 -6
-13 -23 -13 -37 0 -36 -14 -34 -27 5 l-11 31 -20 -23 c-11 -13 -20 -17 -20
-10 0 7 9 21 21 31 11 10 24 34 29 53 7 30 5 36 -9 36 -15 1 -15 1 0 10 14 8
27 45 34 95 1 6 6 19 10 29 5 11 8 58 7 105 -2 165 1 151 -32 151 -28 0 -28 1
-15 27 7 14 19 29 26 33 6 4 13 20 14 34 3 23 0 26 -17 20 -11 -3 -29 -15 -39
-25 -10 -10 -24 -19 -29 -19 -16 0 -75 -60 -59 -60 10 -1 9 -5 -5 -15 -10 -7
-15 -18 -12 -23 3 -6 -1 -13 -10 -16 -9 -3 -14 -13 -11 -21 4 -8 -2 -16 -14
-20 -10 -4 -19 -12 -19 -20 0 -7 -11 -16 -24 -19 -13 -3 -27 -13 -30 -22 -10
-26 1 -28 25 -5 13 12 26 21 30 21 12 0 20 -18 10 -24 -4 -3 -11 -18 -14 -33
-3 -16 -16 -34 -28 -42 -20 -12 -24 -11 -34 3 -19 26 -29 19 -12 -8 15 -22 15
-25 1 -30 -10 -4 -14 -13 -10 -22 7 -19 -30 -103 -50 -111 -9 -3 -12 -13 -9
-23 3 -11 -1 -20 -11 -24 -11 -4 -13 -10 -6 -19 12 -16 8 -42 -13 -74 -17 -26
-17 -26 9 -19 25 6 36 -7 16 -19 -6 -4 -8 -10 -5 -15 8 -13 -6 -40 -22 -40
-12 0 -12 -3 2 -16 11 -12 13 -20 6 -27 -14 -14 -14 -30 -1 -22 5 3 10 2 10
-4 0 -5 -4 -12 -9 -15 -5 -3 -11 -22 -13 -41 -3 -27 -1 -34 12 -32 8 1 14 -4
12 -10 -3 -17 15 -17 21 0 2 6 8 9 12 5 4 -4 -3 -17 -16 -28 -19 -15 -21 -21
-10 -29 9 -6 10 -11 2 -15 -7 -5 -4 -14 8 -28 11 -11 17 -27 14 -34 -3 -8 2
-23 11 -33 9 -10 13 -21 9 -24 -3 -4 6 -7 20 -7 15 0 27 -4 27 -9 0 -18 106
-11 146 9 21 11 47 20 58 20 19 0 19 -1 -2 -23 -27 -29 -28 -37 -3 -37 11 0
23 -5 26 -10 4 -6 23 -10 43 -9 20 1 47 -1 59 -5 18 -6 25 -2 35 19 6 14 17
24 23 21 6 -2 31 0 56 6 76 16 212 20 206 5 -2 -7 1 -17 7 -22 14 -13 66 -16
66 -4 0 5 -4 9 -10 9 -5 0 -10 10 -10 21 0 18 2 19 15 9 12 -10 15 -9 15 5 0
9 16 33 35 52 18 18 34 37 34 41 1 4 7 14 15 24 8 9 12 19 9 22 -4 3 1 6 10 6
9 0 20 7 25 16 5 10 14 14 21 9 9 -5 9 -10 -2 -18 -8 -7 -31 -36 -50 -66 -34
-52 -38 -71 -16 -71 6 0 7 4 4 10 -3 5 -2 10 4 10 6 0 8 6 5 13 -3 8 2 20 11
27 8 7 15 9 15 6 0 -17 39 16 42 36 2 13 12 22 27 25 14 2 30 8 37 14 7 5 24
7 38 3 22 -5 26 -3 26 17 0 22 0 22 -15 3 -8 -10 -15 -14 -15 -7 0 7 -7 10
-15 7 -8 -4 -15 -2 -15 4 0 5 11 13 25 16 29 7 70 44 60 54 -4 4 -14 -2 -23
-13 -10 -11 -26 -21 -37 -22 -19 -1 -19 -1 -3 11 10 7 15 15 12 19 -3 3 3 8
14 11 30 10 33 49 6 73 l-22 20 -41 -29 c-23 -15 -46 -28 -51 -28 -6 0 -10 -4
-10 -9 0 -8 -23 -18 -62 -27 -11 -2 -18 5 -22 24 -24 118 -30 167 -29 235 0
42 -3 77 -7 77 -5 0 -6 18 -4 40 2 22 0 39 -4 39 -19 -3 -21 3 -8 29 8 16 13
40 12 55 -2 15 0 24 4 22 4 -2 13 7 20 20 14 25 30 33 30 15 0 -5 19 -23 42
-40 35 -26 50 -30 104 -30 59 0 124 22 124 43 0 5 5 5 12 1 7 -5 31 -7 53 -5
49 3 91 39 100 87 6 32 8 34 45 34 37 0 40 2 40 28 0 15 7 38 16 50 9 13 13
29 10 37 -7 19 -11 19 124 -11 114 -25 229 -43 282 -44 l27 0 0 265 c0 190 -3
264 -11 259 -7 -5 -9 5 -4 32 3 22 9 64 12 94 6 52 5 56 -20 69 -20 11 -28 11
-40 2 -12 -10 -17 -7 -31 18 -22 44 -22 44 -1 47 10 1 35 16 55 32 33 27 36
34 39 90 l3 62 -48 -2 c-35 -2 -59 -10 -87 -30 -37 -27 -63 -31 -38 -6 23 23
13 38 -25 38 -35 0 -36 -1 -17 -15 18 -14 17 -15 -11 -9 -23 4 -26 3 -15 -5
12 -9 11 -11 -9 -11 -18 0 -22 4 -18 19 5 19 -1 20 -124 20 -120 1 -129 -1
-129 -18 0 -21 -44 -61 -67 -61 -10 0 -13 10 -10 40 l4 40 -99 0 c-78 0 -100
-3 -104 -15 -5 -11 -11 -12 -24 -5 -27 14 -27 14 -70 -30 -36 -37 -39 -45 -17
-41 4 1 0 -11 -10 -25 -15 -24 -17 -25 -24 -8 -4 11 -8 14 -8 8 -1 -6 -12 -9
-26 -6 -30 5 -31 10 -8 28 10 7 14 16 10 20 -4 5 -12 3 -16 -4 -4 -7 -15 -10
-24 -6 -12 4 -17 1 -17 -14 0 -12 -9 -22 -22 -26 -35 -9 -37 -8 -25 18 7 15
17 22 27 18 9 -3 7 2 -5 11 -19 15 -19 16 15 29 19 8 37 11 38 6 2 -4 12 -8
23 -8 10 0 19 -4 19 -10 0 -17 17 -11 23 8 2 9 8 25 12 35 7 16 -11 17 -292
17 -225 0 -302 -3 -312 -12 -8 -7 -11 -8 -8 -2 4 7 -41 11 -144 13 l-149 2 -9
-24 c-6 -14 -28 -34 -53 -46 -54 -26 -66 -27 -44 -2 13 14 14 20 4 28 -7 6
-21 9 -31 7 -14 -2 -18 2 -14 17 5 18 -1 19 -89 19 l-94 0 0 -61z m810 -103
c5 -5 12 2 15 17 4 16 12 24 20 21 10 -4 7 -15 -11 -47 -38 -67 -28 -76 24
-21 47 50 80 74 101 74 8 0 7 -7 -1 -20 -10 -16 -10 -24 0 -40 18 -30 15 -35
-20 -35 -29 0 -33 -3 -30 -24 4 -35 -28 -111 -46 -111 -21 0 -52 30 -52 50 0
9 -6 30 -14 46 -10 20 -12 47 -8 89 3 33 8 49 10 35 2 -14 8 -29 12 -34z m317
-77 c11 -29 35 -33 32 -6 -4 34 2 42 16 23 11 -15 17 -17 29 -7 8 7 34 13 58
14 35 2 43 -1 40 -15 -1 -9 2 -19 8 -23 5 -3 10 2 10 11 0 15 3 14 19 -4 19
-22 61 -30 61 -12 0 6 -4 10 -10 10 -5 0 -7 7 -4 15 5 12 10 12 27 3 12 -7 24
-13 27 -13 22 -4 50 -18 50 -26 0 -5 -10 -10 -22 -10 -17 -1 -19 -2 -5 -6 9
-2 17 -9 17 -14 0 -14 -51 -7 -68 8 -9 8 -21 9 -45 1 -17 -5 -39 -10 -47 -10
-8 -1 -18 -6 -22 -12 -5 -8 -8 -7 -8 2 0 6 -7 12 -15 12 -9 0 -12 -6 -9 -15 4
-8 1 -15 -5 -15 -6 0 -11 5 -11 10 0 6 -4 10 -10 10 -5 0 -10 -6 -10 -14 0
-10 -11 -15 -32 -14 -18 0 -54 -2 -80 -5 -53 -5 -53 -5 -37 25 9 16 13 18 20
7 4 -7 12 -10 16 -5 4 5 3 11 -4 13 -24 8 -63 45 -63 58 0 11 35 30 60 34 3 1
11 -13 17 -30z"/>
<path d="M1555 937 c-26 -15 -49 -40 -67 -72 -44 -82 -90 -204 -83 -224 13
-42 113 -24 102 18 -2 10 2 29 9 42 7 13 13 34 14 47 0 12 5 22 10 22 6 0 10
7 10 16 0 9 6 22 14 28 8 6 17 36 20 66 2 30 9 56 15 58 12 4 15 22 4 22 -5 0
-26 -10 -48 -23z"/>
</g>
</svg>
